<svg width="121" height="23" viewBox="0 0 121 23" fill="none" xmlns="http://www.w3.org/2000/svg">
<path d="M0.82 0.355998C1.84667 1.23333 3.24667 1.728 5.02 1.84C6.196 1.87733 7.91333 1.96133 10.172 2.092C11.9827 2.24133 13.252 2.68 13.98 3.408C14.5773 4.024 14.9787 4.63067 15.184 5.228C15.408 5.80667 15.52 6.544 15.52 7.44V8.588C15.4827 8.73733 15.4547 8.84 15.436 8.896C15.436 8.91467 15.3613 9.204 15.212 9.764C15.1 10.1373 14.9507 10.38 14.764 10.492C14.4093 10.492 14.176 10.5573 14.064 10.688C14.4 10.8933 14.5307 11.5093 14.456 12.536L14.4 13.376C14.3813 13.5627 14.3907 13.7587 14.428 13.964C14.4653 14.1693 14.5213 14.4027 14.596 14.664C14.596 14.776 14.596 14.9347 14.596 15.14C14.6147 15.3267 14.6333 15.5227 14.652 15.728C14.6707 15.9333 14.68 16.1387 14.68 16.344C14.6987 16.5307 14.708 16.68 14.708 16.792C14.708 17.9867 14.4933 18.9013 14.064 19.536C13.9147 19.6293 13.7747 20.0493 13.644 20.796C13.5133 21.524 13.4293 21.9067 13.392 21.944L12.552 22C12.2347 22.0187 11.8333 22.0093 11.348 21.972C10.8813 21.9347 10.34 21.8693 9.724 21.776C9.07067 21.6827 8.50133 21.608 8.016 21.552C7.54933 21.496 7.176 21.468 6.896 21.468C5.944 21.468 5.14133 21.5893 4.488 21.832C4.488 21.0853 4.73067 20.012 5.216 18.612C5.75733 17.1373 6.27067 16.176 6.756 15.728C7.204 15.392 7.63333 15.224 8.044 15.224C8.24933 15.224 8.66933 15.3547 9.304 15.616C9.90133 15.8587 10.3493 15.98 10.648 15.98C10.7973 15.98 11.124 15.896 11.628 15.728V15.532C11.6467 15.364 11.7773 15 12.02 14.44C12.2627 13.936 12.384 13.5533 12.384 13.292C12.384 12.9 12.244 12.6013 11.964 12.396C11.6467 12.2653 11.348 12.1813 11.068 12.144C10.788 12.088 10.5453 12.0693 10.34 12.088L9.668 12.144L8.828 12.06L5.216 12.396C5.12267 13.0493 4.992 13.8707 4.824 14.86C4.656 15.8307 4.46 16.9693 4.236 18.276C4.10533 18.9293 3.94667 19.5547 3.76 20.152C3.57333 20.7493 3.34933 21.3093 3.088 21.832C2.88267 21.9067 2.68667 21.944 2.5 21.944C2.36933 21.944 2.17333 21.9253 1.912 21.888C1.66933 21.8507 1.48267 21.832 1.352 21.832C0.586667 21.216 0.204 19.4613 0.204 16.568C0.278667 16.232 0.390667 15.8307 0.54 15.364C0.708 14.8787 0.922667 14.3187 1.184 13.684C1.76267 12.3773 2.23867 11.4813 2.612 10.996C3.396 9.52133 3.788 8.28 3.788 7.272V6.824C1.95867 6.41333 0.950667 5.62933 0.764 4.472C0.670667 4.00533 0.596 3.58533 0.54 3.212C0.502667 2.82 0.484 2.46533 0.484 2.148C0.484 1.38267 0.596 0.785332 0.82 0.355998ZM8.184 7.188L5.86 7.356L6.056 9.792L7.96 9.708L10.424 9.736C11.5813 9.75467 12.748 9.596 13.924 9.26C14.1293 8.99867 14.232 8.76533 14.232 8.56V8.028C14.232 7.78533 14.1293 7.61733 13.924 7.524L8.184 7.188ZM27.1127 12.228H28.0927C30.37 12.228 32.0127 12.9187 33.0207 14.3C33.898 16.092 34.43 17.1187 34.6167 17.38C35.3633 18.5747 36.166 19.3493 37.0247 19.704L37.0527 20.18C37.0713 20.4973 37.0153 20.8053 36.8847 21.104C36.2313 21.608 35.3913 21.86 34.3647 21.86C32.1807 21.86 30.5847 20.9267 29.5767 19.06C29.054 18.1453 28.746 17.212 28.6527 16.26C28.6527 14.5427 28.1393 13.32 27.1127 12.592C27.0567 12.592 27.0287 12.564 27.0287 12.508C27.0287 12.4333 26.9913 12.396 26.9167 12.396L27.1127 12.228ZM18.5727 0.355998C19.3193 1.04666 20.3927 1.392 21.7927 1.392C22.1287 1.392 22.6887 1.364 23.4727 1.308C24.2007 1.23333 24.7607 1.20533 25.1527 1.224L26.2167 1.252L29.6327 1.224C31.686 1.18667 33.2167 1.55067 34.2247 2.316C35.5313 3.62267 36.1847 5.18133 36.1847 6.992C36.1847 9.02667 35.5873 10.3613 34.3927 10.996C32.918 11.4067 30.93 11.612 28.4287 11.612H24.0607C23.6127 11.612 23.1273 11.64 22.6047 11.696C22.5673 12.0133 22.53 12.2467 22.4927 12.396C22.474 12.5267 22.4647 12.5547 22.4647 12.48C22.4647 13.208 22.7727 14.2813 23.3887 15.7C24.0047 17.1373 24.3127 18.22 24.3127 18.948C24.3127 19.5827 24.2007 20.124 23.9767 20.572C23.1367 21.412 22.3807 21.8693 21.7087 21.944C20.402 21.944 19.2353 21.4307 18.2087 20.404C17.854 19.676 17.6767 18.78 17.6767 17.716C17.6767 16.2413 17.994 14.8787 18.6287 13.628C18.946 13.1053 19.254 12.592 19.5527 12.088C19.8513 11.5653 20.15 11.0427 20.4487 10.52C21.1767 9.21333 21.5407 8.10267 21.5407 7.188V6.824C20.0847 6.432 19.0953 5.508 18.5727 4.052C18.498 3.62267 18.4327 3.184 18.3767 2.736C18.3207 2.288 18.2647 1.84933 18.2087 1.42C18.2087 1.084 18.274 0.729332 18.4047 0.355998H18.5727ZM22.7727 6.824V10.156H27.2807L28.5127 10.324L29.6327 10.24L31.2287 10.268C32.0127 10.2867 32.7313 10.128 33.3847 9.792C33.8513 9.43733 34.0847 8.85867 34.0847 8.056C33.9913 7.85067 33.8887 7.64533 33.7767 7.44C33.6833 7.216 33.5527 7.06667 33.3847 6.992L22.7727 6.824ZM42.2768 0.355998C42.4448 0.766665 42.6968 1.056 43.0328 1.224C43.1262 1.28 43.3782 1.37333 43.7888 1.504C44.2182 1.616 44.8248 1.76533 45.6088 1.952C46.4862 2.15733 47.5222 2.30667 48.7168 2.4C50.7515 2.54933 52.0675 2.71733 52.6648 2.904C53.7848 3.31467 54.7275 4.21067 55.4928 5.592C57.1168 10.24 57.9288 13.8987 57.9288 16.568C57.9288 18.3413 57.6488 19.8533 57.0888 21.104C56.4915 21.5893 55.6235 21.832 54.4848 21.832H53.5608C52.8328 21.832 52.3288 21.8693 52.0488 21.944C51.8808 21.9253 51.6475 21.8227 51.3488 21.636C51.6288 21.02 51.8808 20.264 52.1048 19.368C52.3662 18.3787 52.4782 17.604 52.4408 17.044L52.4128 16.26C52.8048 16.0173 53.4955 15.8773 54.4848 15.84C55.4742 15.784 56.1648 15.6813 56.5568 15.532C56.5942 15.3827 56.6128 15.196 56.6128 14.972C56.6128 14.412 56.4822 13.852 56.2208 13.292C55.8288 12.788 55.2968 12.536 54.6248 12.536L54.1208 12.592C53.7662 12.6853 52.9448 13.152 51.6568 13.992C50.5928 14.664 49.7342 15 49.0808 15C49.1928 15 49.1368 14.9813 48.9128 14.944C48.6888 14.9067 48.2968 14.8507 47.7368 14.776C47.0648 14.7013 46.2902 13.9733 45.4128 12.592C45.3008 12.1813 45.2448 11.7613 45.2448 11.332C45.6928 11.4813 46.0195 11.556 46.2248 11.556C46.7288 11.556 47.5222 11.3413 48.6048 10.912C49.3142 10.6133 49.8648 10.3893 50.2568 10.24C50.6488 10.0907 50.8915 9.99733 50.9848 9.96C52.4222 9.96 53.3835 10.072 53.8688 10.296C54.2795 10.4827 54.8208 10.828 55.4928 11.332V11.08C55.4928 10.632 55.0262 9.96933 54.0928 9.092C53.4955 8.56933 52.3475 8.18667 50.6488 7.944C50.0142 7.86933 49.3795 7.804 48.7448 7.748C48.1102 7.67333 47.4755 7.59867 46.8408 7.524C45.6088 8.17733 44.8808 8.97067 44.6568 9.904C44.4888 10.6693 44.4048 11.2387 44.4048 11.612C44.4048 13.404 45.0395 15.0093 46.3088 16.428C46.6822 17.268 46.8688 17.9307 46.8688 18.416C46.8688 19.76 46.0848 20.768 44.5168 21.44C43.6208 21.8133 42.7435 22 41.8848 22L41.4368 21.944C40.1302 21.776 39.2715 21.2627 38.8608 20.404C39.4395 20.124 39.8502 19.8813 40.0928 19.676C40.3915 19.4333 40.6528 19.0227 40.8768 18.444C41.2502 17.5667 41.5862 16.2693 41.8848 14.552C42.2395 12.6667 42.5475 11.3413 42.8088 10.576C43.2755 9.176 43.9662 8.04667 44.8808 7.188C44.9555 7.188 45.0208 7.12267 45.0768 6.992C43.3968 6.432 42.2862 5.20933 41.7448 3.324C41.7448 3.17467 41.7168 2.95067 41.6608 2.652C41.6048 2.33467 41.5768 2.10133 41.5768 1.952C41.5768 1.35467 41.7542 0.822666 42.1088 0.355998H42.2768ZM73.6681 2.624C74.5828 2.38133 75.2828 2.10133 75.7681 1.784C76.0108 1.616 76.5988 1.14 77.5321 0.355998C77.5321 1.252 77.2708 2.372 76.7481 3.716C76.2068 5.09733 75.6561 6.13333 75.0961 6.824C74.4615 7.42133 73.5841 7.832 72.4641 8.056C72.3335 8.07467 72.0255 8.112 71.5401 8.168C71.0548 8.20533 70.3828 8.27067 69.5241 8.364C68.4601 8.252 67.2188 8.196 65.8001 8.196H65.3241C64.9695 8.23333 64.6148 8.28 64.2601 8.336C63.9055 8.37333 63.5415 8.41067 63.1681 8.448C62.3841 8.63467 61.8335 9.02667 61.5161 9.624C60.9748 11.024 60.7041 12.2747 60.7041 13.376C60.7041 14.048 60.7975 14.6547 60.9841 15.196C61.5068 16.1667 62.4215 16.652 63.7281 16.652L64.4841 16.568C67.5081 16.232 69.6455 16.064 70.8961 16.064C73.5281 16.064 75.4415 17.0533 76.6361 19.032C76.7855 19.48 76.8601 19.8067 76.8601 20.012C76.8601 20.2173 76.7761 20.516 76.6081 20.908C76.4028 21.412 76.2908 21.72 76.2721 21.832C74.6481 21.2347 73.0895 20.936 71.5961 20.936C70.7748 20.936 69.4868 21.104 67.7321 21.44C66.0335 21.7387 64.8108 21.8787 64.0641 21.86L63.4201 21.832C62.3561 21.664 61.5441 21.0667 60.9841 20.04C60.6108 19.5733 60.3121 18.7707 60.0881 17.632C60.0881 17.3147 60.0695 16.9227 60.0321 16.456C60.0135 15.9707 59.9668 15.4013 59.8921 14.748C59.7801 13.46 59.7241 12.4987 59.7241 11.864C59.7241 8.29867 60.5361 5.57333 62.1601 3.688C62.4028 2.99733 63.9241 2.66133 66.7241 2.68L71.9321 2.764C72.6975 2.78267 73.2761 2.736 73.6681 2.624ZM69.6921 10.688C70.0281 10.7627 70.2801 10.8187 70.4481 10.856C70.6348 10.8747 70.7468 10.8933 70.7841 10.912C71.1948 11.0613 71.4748 11.2853 71.6241 11.584C71.7735 11.8827 71.8481 12.2187 71.8481 12.592C71.8481 12.9467 71.7641 13.292 71.5961 13.628C70.9801 14.188 70.3455 14.468 69.6921 14.468C69.3935 14.412 69.1415 14.3653 68.9361 14.328C68.7308 14.272 68.5721 14.2253 68.4601 14.188C68.0308 14.02 67.6855 13.7773 67.4241 13.46L67.3121 12.592C67.3121 12.2 67.3961 11.9013 67.5641 11.696C67.9748 11.024 68.6841 10.688 69.6921 10.688ZM80.163 0.355998C80.4244 0.971999 80.891 1.49467 81.563 1.924C82.1604 2.29733 82.823 2.53067 83.551 2.624C84.7457 2.75467 85.651 3.52 86.267 4.92C86.4164 5.51733 86.491 6.19867 86.491 6.964V8.588C86.491 8.77467 86.5097 9.04533 86.547 9.4C86.603 9.75467 86.631 10.016 86.631 10.184C86.631 10.2773 86.687 10.324 86.799 10.324C87.2844 9.52133 87.527 9.12 87.527 9.12C87.863 8.65333 88.1897 8.34533 88.507 8.196C88.5817 8.196 88.647 8.224 88.703 8.28C88.759 8.336 88.815 8.364 88.871 8.364C89.2257 9.24133 89.403 9.68 89.403 9.68C89.6644 10.1653 89.963 10.5013 90.299 10.688L91.251 10.772C91.419 10.772 91.6244 10.772 91.867 10.772C92.1284 10.7533 92.4177 10.7347 92.735 10.716C93.3697 10.66 93.855 10.632 94.191 10.632C95.3857 10.632 96.2537 10.828 96.795 11.22C96.9444 11.4067 97.1124 11.6027 97.299 11.808C97.4857 11.9947 97.7004 12.1907 97.943 12.396C98.111 12.0973 98.195 11.7333 98.195 11.304C98.195 10.7067 98.055 9.96933 97.775 9.092C97.5884 8.51333 97.0657 8.112 96.207 7.888C93.799 7.888 92.1657 6.964 91.307 5.116C91.2137 4.836 91.1297 4.556 91.055 4.276C90.9804 3.97733 90.915 3.66933 90.859 3.352C90.7097 2.58667 90.6537 2.01733 90.691 1.644L90.775 0.551999H90.943C91.3537 1.26133 92.0817 1.74667 93.127 2.008C93.2764 2.04533 93.575 2.092 94.023 2.148C94.471 2.18533 95.087 2.24133 95.871 2.316C97.047 2.63333 97.915 3.44533 98.475 4.752C99.1284 7.57067 99.455 10.5947 99.455 13.824C99.455 14.6827 99.399 15.9333 99.287 17.576C99.2497 18.416 99.2124 19.144 99.175 19.76C99.1564 20.376 99.147 20.8893 99.147 21.3C98.7924 21.7107 98.2884 21.916 97.635 21.916L97.243 21.832C96.907 21.7573 96.6457 21.58 96.459 21.3C96.3844 21.2253 96.2444 20.9267 96.039 20.404C96.039 19.788 96.3564 18.9107 96.991 17.772C97.6257 16.6333 97.943 15.8773 97.943 15.504C97.943 15.112 97.8497 14.692 97.663 14.244C97.4017 13.5907 96.963 13.04 96.347 12.592C95.5817 12.592 94.4897 13.1053 93.071 14.132C91.6524 15.1587 90.5604 15.672 89.795 15.672C89.459 15.672 89.067 15.5973 88.619 15.448C87.891 15.2053 87.2844 14.5427 86.799 13.46C86.5937 14.076 86.491 14.888 86.491 15.896V17.576C86.491 17.6507 86.4817 17.772 86.463 17.94C86.4444 18.108 86.435 18.2387 86.435 18.332L86.491 20.012C86.5097 20.572 86.435 21.1133 86.267 21.636C86.267 21.636 86.0897 21.7387 85.735 21.944C85.119 21.944 84.4284 21.8413 83.663 21.636C82.2257 21.02 81.3484 20.208 81.031 19.2L80.919 18.248C80.919 16.904 81.3764 15.8867 82.291 15.196C82.3657 15.084 83.0377 14.44 84.307 13.264C85.203 12.424 85.6324 11.668 85.595 10.996L85.567 10.324C85.3617 9.54 84.9604 8.952 84.363 8.56C81.9364 7.81333 80.4804 6.6 79.995 4.92C79.883 4.22933 79.827 3.52 79.827 2.792C79.827 1.84 79.939 1.028 80.163 0.355998ZM104.921 0.355998C105.089 0.766665 105.341 1.056 105.677 1.224C105.771 1.28 106.023 1.37333 106.433 1.504C106.863 1.616 107.469 1.76533 108.253 1.952C109.131 2.15733 110.167 2.30667 111.361 2.4C113.396 2.54933 114.712 2.71733 115.309 2.904C116.429 3.31467 117.372 4.21067 118.137 5.592C119.761 10.24 120.573 13.8987 120.573 16.568C120.573 18.3413 120.293 19.8533 119.733 21.104C119.136 21.5893 118.268 21.832 117.129 21.832H116.205C115.477 21.832 114.973 21.8693 114.693 21.944C114.525 21.9253 114.292 21.8227 113.993 21.636C114.273 21.02 114.525 20.264 114.749 19.368C115.011 18.3787 115.123 17.604 115.085 17.044L115.057 16.26C115.449 16.0173 116.14 15.8773 117.129 15.84C118.119 15.784 118.809 15.6813 119.201 15.532C119.239 15.3827 119.257 15.196 119.257 14.972C119.257 14.412 119.127 13.852 118.865 13.292C118.473 12.788 117.941 12.536 117.269 12.536L116.765 12.592C116.411 12.6853 115.589 13.152 114.301 13.992C113.237 14.664 112.379 15 111.725 15C111.837 15 111.781 14.9813 111.557 14.944C111.333 14.9067 110.941 14.8507 110.381 14.776C109.709 14.7013 108.935 13.9733 108.057 12.592C107.945 12.1813 107.889 11.7613 107.889 11.332C108.337 11.4813 108.664 11.556 108.869 11.556C109.373 11.556 110.167 11.3413 111.249 10.912C111.959 10.6133 112.509 10.3893 112.901 10.24C113.293 10.0907 113.536 9.99733 113.629 9.96C115.067 9.96 116.028 10.072 116.513 10.296C116.924 10.4827 117.465 10.828 118.137 11.332V11.08C118.137 10.632 117.671 9.96933 116.737 9.092C116.14 8.56933 114.992 8.18667 113.293 7.944C112.659 7.86933 112.024 7.804 111.389 7.748C110.755 7.67333 110.12 7.59867 109.485 7.524C108.253 8.17733 107.525 8.97067 107.301 9.904C107.133 10.6693 107.049 11.2387 107.049 11.612C107.049 13.404 107.684 15.0093 108.953 16.428C109.327 17.268 109.513 17.9307 109.513 18.416C109.513 19.76 108.729 20.768 107.161 21.44C106.265 21.8133 105.388 22 104.529 22L104.081 21.944C102.775 21.776 101.916 21.2627 101.505 20.404C102.084 20.124 102.495 19.8813 102.737 19.676C103.036 19.4333 103.297 19.0227 103.521 18.444C103.895 17.5667 104.231 16.2693 104.529 14.552C104.884 12.6667 105.192 11.3413 105.453 10.576C105.92 9.176 106.611 8.04667 107.525 7.188C107.6 7.188 107.665 7.12267 107.721 6.992C106.041 6.432 104.931 5.20933 104.389 3.324C104.389 3.17467 104.361 2.95067 104.305 2.652C104.249 2.33467 104.221 2.10133 104.221 1.952C104.221 1.35467 104.399 0.822666 104.753 0.355998H104.921Z" fill="#373329"/>
</svg>
