<svg width="25" height="24" viewBox="0 0 25 24" fill="none" xmlns="http://www.w3.org/2000/svg">
<g clip-path="url(#clip0_4_2)">
<path d="M12.5 0C10.1266 0 7.80655 0.703788 5.83316 2.02236C3.85977 3.34094 2.3217 5.21509 1.41345 7.4078C0.505199 9.60051 0.267559 12.0133 0.730582 14.3411C1.1936 16.6689 2.33649 18.8071 4.01472 20.4853C5.69295 22.1635 7.83115 23.3064 10.1589 23.7694C12.4867 24.2324 14.8995 23.9948 17.0922 23.0866C19.2849 22.1783 21.1591 20.6402 22.4776 18.6668C23.7962 16.6935 24.5 14.3734 24.5 12C24.4966 8.81846 23.2312 5.76821 20.9815 3.51852C18.7318 1.26883 15.6815 0.00344108 12.5 0V0ZM12.5 21C10.72 21 8.97992 20.4722 7.49987 19.4832C6.01983 18.4943 4.86628 17.0887 4.18509 15.4442C3.5039 13.7996 3.32567 11.99 3.67294 10.2442C4.0202 8.49836 4.87737 6.89471 6.13604 5.63604C7.39472 4.37737 8.99836 3.5202 10.7442 3.17293C12.49 2.82567 14.2996 3.0039 15.9442 3.68508C17.5887 4.36627 18.9943 5.51983 19.9832 6.99987C20.9722 8.47991 21.5 10.22 21.5 12C21.4971 14.3861 20.5479 16.6736 18.8608 18.3607C17.1736 20.0479 14.8861 20.9971 12.5 21Z" fill="white"/>
<path d="M12.4998 6.99939C11.5109 6.99939 10.5442 7.29263 9.72197 7.84204C8.89972 8.39145 8.25886 9.17234 7.88042 10.086C7.50198 10.9996 7.40297 12.0049 7.59589 12.9748C7.78882 13.9447 8.26502 14.8357 8.96429 15.5349C9.66355 16.2342 10.5545 16.7104 11.5244 16.9033C12.4943 17.0962 13.4996 16.9972 14.4132 16.6188C15.3269 16.2404 16.1078 15.5995 16.6572 14.7772C17.2066 13.955 17.4998 12.9883 17.4998 11.9994C17.4982 10.6738 16.9709 9.40295 16.0336 8.46561C15.0963 7.52827 13.8254 7.00098 12.4998 6.99939ZM12.4998 13.9994C12.1043 13.9994 11.7176 13.8821 11.3887 13.6623C11.0598 13.4426 10.8034 13.1302 10.6521 12.7648C10.5007 12.3993 10.4611 11.9972 10.5382 11.6092C10.6154 11.2212 10.8059 10.8649 11.0856 10.5852C11.3653 10.3055 11.7217 10.115 12.1096 10.0378C12.4976 9.96065 12.8997 10.0003 13.2652 10.1516C13.6306 10.303 13.943 10.5594 14.1628 10.8882C14.3825 11.2171 14.4998 11.6038 14.4998 11.9994C14.4998 12.5298 14.2891 13.0385 13.914 13.4136C13.539 13.7887 13.0303 13.9994 12.4998 13.9994Z" fill="#E03C3C"/>
</g>
<defs>
<clipPath id="clip0_4_2">
<rect width="24" height="24" fill="white" transform="translate(0.5)"/>
</clipPath>
</defs>
</svg>
